<svg xmlns="http://www.w3.org/2000/svg" xmlns:xlink="http://www.w3.org/1999/xlink" viewBox="0 0 672 900" role="img" aria-label="Обложка игры Lunar1ya">
<defs><linearGradient id="bg" x1="0" y1="0" x2="1" y2="1"><stop stop-color="#f29ab6"/><stop offset="1" stop-color="#182238"/></linearGradient><linearGradient id="shade" x1="0" y1="0" x2="0" y2="1"><stop stop-color="#050811" stop-opacity=".08"/><stop offset=".7" stop-color="#050811" stop-opacity=".08"/><stop offset="1" stop-color="#050811" stop-opacity=".88"/></linearGradient><pattern id="grain" width="38" height="38" patternUnits="userSpaceOnUse"><circle cx="4" cy="6" r="1" fill="#fff" opacity=".12"/><circle cx="25" cy="21" r="1" fill="#fff" opacity=".08"/><path d="M0 37L38 0" stroke="#fff" stroke-width="1" opacity=".025"/></pattern></defs>
<rect width="672" height="900" fill="url(#bg)"/><path d="M0 650 Q120 530 240 660 T480 640 T672 620V900H0Z" fill="#ffd36e" opacity=".16"/><path d="M40 300 Q130 190 220 300M450 310 Q540 180 630 290" fill="none" stroke="#ffd36e" stroke-width="10" opacity=".45"/><circle cx="560" cy="170" r="64" fill="#ffd36e" opacity=".5"/><rect width="672" height="900" fill="url(#grain)"/>
<image xlink:href="../character/lunar1ya-ferret-figure.webp" x="137" y="156" width="398" height="650" preserveAspectRatio="xMidYMax meet" opacity=".98"/>
<rect width="672" height="900" fill="url(#shade)"/>
<rect x="22" y="18" width="628" height="142" rx="12" fill="#050811" fill-opacity=".58" stroke="#c5eaff" stroke-opacity=".72" stroke-width="2"/><path d="M34 38H190" stroke="#ffd36e" stroke-width="4"/><text x="34" y="61" fill="#fff" font-family="system-ui,sans-serif" font-size="13" font-weight="700" letter-spacing="4">LUNAR1YA</text><text x="638" y="61" text-anchor="end" fill="#fff" opacity=".72" font-family="system-ui,sans-serif" font-size="11" letter-spacing="2">GAME LIBRARY</text>
<text x="34" y="82" fill="#fff" font-family="system-ui,sans-serif" font-size="28" font-weight="900">Little Misfortune</text>
</svg>