<svg xmlns="http://www.w3.org/2000/svg" xmlns:xlink="http://www.w3.org/1999/xlink" viewBox="0 0 672 900" role="img" aria-label="Обложка игры Lunar1ya">
<defs><linearGradient id="bg" x1="0" y1="0" x2="1" y2="1"><stop stop-color="#667b65"/><stop offset="1" stop-color="#12181d"/></linearGradient><linearGradient id="shade" x1="0" y1="0" x2="0" y2="1"><stop stop-color="#050811" stop-opacity=".08"/><stop offset=".7" stop-color="#050811" stop-opacity=".08"/><stop offset="1" stop-color="#050811" stop-opacity=".88"/></linearGradient><pattern id="grain" width="38" height="38" patternUnits="userSpaceOnUse"><circle cx="4" cy="6" r="1" fill="#fff" opacity=".12"/><circle cx="25" cy="21" r="1" fill="#fff" opacity=".08"/><path d="M0 37L38 0" stroke="#fff" stroke-width="1" opacity=".025"/></pattern></defs>
<rect width="672" height="900" fill="url(#bg)"/><path d="M-50 900 Q336 260 722 900" fill="none" stroke="#080b12" stroke-width="160" opacity=".8"/><path d="M40 900 Q336 400 632 900" fill="none" stroke="#f0af5b" stroke-width="4" opacity=".55"/><circle cx="336" cy="460" r="28" fill="#f0af5b" opacity=".9"/><path d="M110 900L260 590M562 900L412 590" stroke="#222b27" stroke-width="38"/><rect width="672" height="900" fill="url(#grain)"/>
<image xlink:href="../character/lunar1ya-ferret-figure.webp" x="137" y="112" width="398" height="706" preserveAspectRatio="xMidYMax meet" opacity=".98"/>
<rect width="672" height="900" fill="url(#shade)"/>
<path d="M34 48H190" stroke="#f0af5b" stroke-width="4"/><text x="34" y="82" fill="#fff" font-family="system-ui,sans-serif" font-size="18" font-weight="700" letter-spacing="4">LUNAR1YA</text><text x="638" y="82" text-anchor="end" fill="#fff" opacity=".72" font-family="system-ui,sans-serif" font-size="13" letter-spacing="2">GAME LIBRARY</text><rect x="22" y="744" width="628" height="136" rx="12" fill="#050811" fill-opacity=".32"/>
<text x="34" y="790" fill="#fff" font-family="system-ui,sans-serif" font-size="30" font-weight="900">Metro 2033 Redux</text>
</svg>