<svg xmlns="http://www.w3.org/2000/svg" xmlns:xlink="http://www.w3.org/1999/xlink" viewBox="0 0 672 900" role="img" aria-label="Обложка игры Lunar1ya">
<defs><linearGradient id="bg" x1="0" y1="0" x2="1" y2="1"><stop stop-color="#dd8a54"/><stop offset="1" stop-color="#24234b"/></linearGradient><linearGradient id="shade" x1="0" y1="0" x2="0" y2="1"><stop stop-color="#050811" stop-opacity=".08"/><stop offset=".7" stop-color="#050811" stop-opacity=".08"/><stop offset="1" stop-color="#050811" stop-opacity=".88"/></linearGradient><pattern id="grain" width="38" height="38" patternUnits="userSpaceOnUse"><circle cx="4" cy="6" r="1" fill="#fff" opacity=".12"/><circle cx="25" cy="21" r="1" fill="#fff" opacity=".08"/><path d="M0 37L38 0" stroke="#fff" stroke-width="1" opacity=".025"/></pattern></defs>
<rect width="672" height="900" fill="url(#bg)"/><circle cx="520" cy="170" r="96" fill="#ffda74" opacity=".7"/><path d="M0 750Q160 570 300 750T672 720V900H0Z" fill="#1b1d43"/><path d="M300 790q-45-100 35-180 45 85 90 120 20-65-5-105 95 80 40 165z" fill="#ffb84f"/><path d="M318 805q-25-58 20-96 25 46 56 65-3 48-76 31z" fill="#fff09b"/><rect width="672" height="900" fill="url(#grain)"/>
<image xlink:href="../character/lunar1ya-ferret-figure.webp" x="137" y="156" width="398" height="650" preserveAspectRatio="xMidYMax meet" opacity=".98"/>
<rect width="672" height="900" fill="url(#shade)"/>
<rect x="22" y="18" width="628" height="142" rx="12" fill="#050811" fill-opacity=".58" stroke="#c5eaff" stroke-opacity=".72" stroke-width="2"/><path d="M34 38H190" stroke="#ffda74" stroke-width="4"/><text x="34" y="61" fill="#fff" font-family="system-ui,sans-serif" font-size="13" font-weight="700" letter-spacing="4">LUNAR1YA</text><text x="638" y="61" text-anchor="end" fill="#fff" opacity=".72" font-family="system-ui,sans-serif" font-size="11" letter-spacing="2">GAME LIBRARY</text>
<text x="34" y="82" fill="#fff" font-family="system-ui,sans-serif" font-size="28" font-weight="900">The Last Campfire</text>
</svg>