<svg xmlns="http://www.w3.org/2000/svg" xmlns:xlink="http://www.w3.org/1999/xlink" viewBox="0 0 672 900" role="img" aria-label="Обложка игры Lunar1ya">
<defs><linearGradient id="bg" x1="0" y1="0" x2="1" y2="1"><stop stop-color="#6f8c73"/><stop offset="1" stop-color="#151d22"/></linearGradient><linearGradient id="shade" x1="0" y1="0" x2="0" y2="1"><stop stop-color="#050811" stop-opacity=".08"/><stop offset=".7" stop-color="#050811" stop-opacity=".08"/><stop offset="1" stop-color="#050811" stop-opacity=".88"/></linearGradient><pattern id="grain" width="38" height="38" patternUnits="userSpaceOnUse"><circle cx="4" cy="6" r="1" fill="#fff" opacity=".12"/><circle cx="25" cy="21" r="1" fill="#fff" opacity=".08"/><path d="M0 37L38 0" stroke="#fff" stroke-width="1" opacity=".025"/></pattern></defs>
<rect width="672" height="900" fill="url(#bg)"/><circle cx="540" cy="180" r="100" fill="#d5e4bf" opacity=".42"/><path d="M0 560L100 410 160 560 270 320 350 560 460 395 540 560 672 350V900H0Z" fill="#172b2b" opacity=".9"/><path d="M40 700h160v200H40zM260 620h110v280H260zM470 680h170v220H470z" fill="#0d151c" opacity=".9"/><rect width="672" height="900" fill="url(#grain)"/>
<image xlink:href="../character/lunar1ya-catgirl-figure.webp" x="137" y="112" width="398" height="706" preserveAspectRatio="xMidYMax meet" opacity=".98"/>
<rect width="672" height="900" fill="url(#shade)"/>
<path d="M34 48H190" stroke="#d5e4bf" stroke-width="4"/><text x="34" y="82" fill="#fff" font-family="system-ui,sans-serif" font-size="18" font-weight="700" letter-spacing="4">LUNAR1YA</text><text x="638" y="82" text-anchor="end" fill="#fff" opacity=".72" font-family="system-ui,sans-serif" font-size="13" letter-spacing="2">GAME LIBRARY</text>
</svg>